<mxfile host="www.draw.io" modified="2019-10-18T06:38:26.827Z" agent="Mozilla/5.0 (Windows NT 10.0; Win64; x64) AppleWebKit/537.36 (KHTML, like Gecko) Chrome/77.0.3865.120 Safari/537.36" etag="BivY2p-tVDDnVUmRbJqt" version="12.1.3" type="github" pages="1">
  <diagram id="Gi-3fPushSvpDvWctYvT" name="第 1 页">
    <mxGraphModel dx="768" dy="461" grid="1" gridSize="10" guides="1" tooltips="1" connect="1" arrows="1" fold="1" page="1" pageScale="1" pageWidth="827" pageHeight="1169" math="0" shadow="0">
      <root>
        <mxCell id="0"/>
        <mxCell id="1" parent="0"/>
        <mxCell id="S339gxRSGxq_bzT2D94u-10" value="Pool" style="swimlane;html=1;childLayout=stackLayout;resizeParent=1;resizeParentMax=0;startSize=20;horizontal=0;horizontalStack=1;" parent="1" vertex="1">
          <mxGeometry x="60" width="590" height="590" as="geometry"/>
        </mxCell>
        <mxCell id="S339gxRSGxq_bzT2D94u-11" value="登录页" style="swimlane;html=1;startSize=20;" parent="S339gxRSGxq_bzT2D94u-10" vertex="1">
          <mxGeometry x="20" width="160" height="590" as="geometry"/>
        </mxCell>
        <mxCell id="0lDGhRCra-5OIYS2WjBe-2" value="登录页" style="rounded=1;whiteSpace=wrap;html=1;" vertex="1" parent="S339gxRSGxq_bzT2D94u-11">
          <mxGeometry x="30" y="50" width="60" height="30" as="geometry"/>
        </mxCell>
        <mxCell id="S339gxRSGxq_bzT2D94u-12" value="首页" style="swimlane;html=1;startSize=20;" parent="S339gxRSGxq_bzT2D94u-10" vertex="1">
          <mxGeometry x="180" width="210" height="590" as="geometry"/>
        </mxCell>
        <mxCell id="0lDGhRCra-5OIYS2WjBe-5" value="" style="edgeStyle=orthogonalEdgeStyle;rounded=0;orthogonalLoop=1;jettySize=auto;html=1;" edge="1" parent="S339gxRSGxq_bzT2D94u-12" source="0lDGhRCra-5OIYS2WjBe-1" target="0lDGhRCra-5OIYS2WjBe-4">
          <mxGeometry relative="1" as="geometry"/>
        </mxCell>
        <mxCell id="0lDGhRCra-5OIYS2WjBe-1" value="首页" style="rounded=1;whiteSpace=wrap;html=1;" vertex="1" parent="S339gxRSGxq_bzT2D94u-12">
          <mxGeometry x="80" y="50" width="60" height="30" as="geometry"/>
        </mxCell>
        <mxCell id="0lDGhRCra-5OIYS2WjBe-4" value="首页" style="rounded=1;whiteSpace=wrap;html=1;" vertex="1" parent="S339gxRSGxq_bzT2D94u-12">
          <mxGeometry x="80" y="160" width="60" height="30" as="geometry"/>
        </mxCell>
        <mxCell id="0lDGhRCra-5OIYS2WjBe-6" value="自动输入账号密码，&lt;br&gt;破解验证码" style="text;html=1;resizable=0;autosize=1;align=center;verticalAlign=middle;points=[];fillColor=none;strokeColor=none;rounded=0;" vertex="1" parent="S339gxRSGxq_bzT2D94u-12">
          <mxGeometry x="-55" y="35" width="120" height="30" as="geometry"/>
        </mxCell>
        <mxCell id="S339gxRSGxq_bzT2D94u-13" value="Lane 3" style="swimlane;html=1;startSize=20;" parent="S339gxRSGxq_bzT2D94u-10" vertex="1">
          <mxGeometry x="390" width="200" height="590" as="geometry"/>
        </mxCell>
        <mxCell id="0lDGhRCra-5OIYS2WjBe-3" value="" style="edgeStyle=orthogonalEdgeStyle;rounded=0;orthogonalLoop=1;jettySize=auto;html=1;" edge="1" parent="S339gxRSGxq_bzT2D94u-10" source="0lDGhRCra-5OIYS2WjBe-2" target="0lDGhRCra-5OIYS2WjBe-1">
          <mxGeometry relative="1" as="geometry"/>
        </mxCell>
      </root>
    </mxGraphModel>
  </diagram>
</mxfile>
